# xmcd CD database file
#
# Track frame offsets:
#	150
#	19680
#	40616
#	54236
#	72116
#	85228
#	100300
#	115526
#	131068
#	143721
#	160114
#	172562
#	190400
#	206410
#	222301
#	241453
#	256737
#	270625
#	283984
#	297872
#	310310
#	322039
#	336758
#
# Disc length: 4689 seconds
#
# Revision: 0
# Processed by: cddbd v1.5.2PL0 Copyright (c) Steve Scherf et al.
# Submitted via: CDex 1.51
#
DISCID=4a124f17
DTITLE=Norah Jones - Not Too Late
DYEAR=2006
DGENRE=Jazz
TTITLE0=Wish I Could
TTITLE1=Sinkin' Soon
TTITLE2=The Sun Doesn't Like You
TTITLE3=Until The End
TTITLE4=Not My Friend
TTITLE5=Thinking About You
TTITLE6=Broken
TTITLE7=My Dear Country
TTITLE8=Wake Me Up
TTITLE9=Be My Somebody
TTITLE10=Little Room
TTITLE11=Rosie's Lullaby
TTITLE12=Not Too Late
TTITLE13=New York City
TTITLE14=I've Got To See You Again
TTITLE15=Those Sweet Words
TTITLE16=Don't Know Why
TTITLE17=Love Me Tender
TTITLE18=The Nearness Of You
TTITLE19=It's Not You It's Me
TTITLE20=Turn Me On
TTITLE21=Come Away With Me
TTITLE22=Sunrise
EXTD=YEAR: 2006
EXTT0=
EXTT1=
EXTT2=
EXTT3=
EXTT4=
EXTT5=
EXTT6=
EXTT7=
EXTT8=
EXTT9=
EXTT10=
EXTT11=
EXTT12=
EXTT13=
EXTT14=
EXTT15=
EXTT16=
EXTT17=
EXTT18=
EXTT19=
EXTT20=
EXTT21=
EXTT22=
PLAYORDER=
